<svg xmlns="http://www.w3.org/2000/svg" viewBox="0 0 792.74 2571.41"><defs><style>.cls-1{fill:#395e60;}</style></defs><g id="border"><rect class="cls-1" x="385.78" y="-385.78" width="20.43" height="792" transform="translate(386.19 406.32) rotate(-90)"/><rect class="cls-1" x="772.3" width="20.43" height="1227.24"/><path class="cls-1" d="M792.34,1292.1V2571.31H-.4V1292.1H0V902.93l2.45,1.3.73.38,12.2,6.45L93,952.1l18.82,9.95,3.63,1.92,32.85,53.43L389,1040.08l7.17,25.15h37.08l98.83,58.61,61.1-8.33,1.32-.19,24.1-3.28,5.62-.77,1.19,2.49s0,0,0,0l3.23,6.84.77,1.63.2.44,3.69,7.8.81,1.72,23.52,4.42,1.33.25,42.07,7.9L743.15,1172h49.18v120.1Z" transform="translate(0.4 0.1)"/><polygon class="cls-1" points="21.56 591.23 15.79 601.33 15.79 1257.3 0.4 1257.3 0.4 0 14.32 0 14.32 563.04 21.56 591.23"/><path class="cls-1" d="M246.19,763.19l3.09,16.3L228,766.92,202.22,786.4l-1.4,1.06.49.44,19.47,17.62-25.4-7.88-1.13-.35L185,794.41l-1-.32-1.72-.53-.67-.21-37-11.49,31.68,26.71.24.21.55.46h0l6.61,5.57.86.72,5.92,5-6.87-3.44-1-.5-6.83-3.42-.61-.31,0,0-.9-.45L119.43,785l-1.55-.77-.16-.08-.23-.12-10.44-5.23-3,14.32-4-6.52-.76-1.21L88.9,768.79l-20.21-2-1.83-.18-3.37-.33-32.4,18.25-10.56,21,4.59,11.09L25.7,818l.11.26,8.84,4.82h0l4.79,2.61,2.86,1.57,1.39-1.1L46,824.37,59.71,813.6l11.65,10.87.89.83,2.28,2.13L77,829.76l4,3.74-6.91,9.63-.25.34-1.18,1.65-.29.41L60.46,862.15l1.4.06,2.94.12h0l28.93,1.16,26.61-7.56-.4.48h0l-2.73,3.22h0l-2.26,2.65-3.27,3.83-1.5,1.77-6.76,8,.11.08,9.18,7,.83.63,1.38,1H72.57l-1.17,2.35-.88,1.78h0L65.91,898l-28.7-14.32-21.82,1.88-2.72.23L3.18,902.91l-.73,1.32L0,908.65V-.1H106.69v0l11.37,8.58,1.17,9.6-15.42-6.19,10.7,20.53c-.6-.43-19.62-14.3-22.4-14.3s-25,2.49-25,2.49L93.79,33.71,41.71,21.48,40.1,33.09,16.3,23.56V81.23l20.38-3.42,5.71,15h21.1l-8.88,6.92L34,96.59l17.52,14.33L16.3,101.56,31.62,136l29.71.35L72,121.48l-2,9L80.43,126l-3.11,10.32,19.62-8.62,22.2,13.65-5.64,5-15.32-5,3.22,12.88-15.68-9.79-11.8,11.44,5.29,37.77,23.17-6.42,10.08-15.18,3.6,12.27-5,5.85,9.33,19.24L105,197.83l-9.68,14.53L113,235.7l23.63,1.78,9.12-6-7.25,25.31H149l6-7.06,2.23,10.61-9,7.65,9,1.66-18.68,7.05-20.17,23.66,25.74-6.82,7.27-9.78,5.84,3.32,12.88-3.74,5.4-13.68,3.77,5V285.8l15.31-6.29,9.69-21.42,7.14,7.66,4.57,8.84,9.27-2.9,8,7.05-4.35,4.72-6.92-4.3-6.19,3.51,15.47,22.22-22.59-15.78,5.65,13.29-15.73-.84-22.18-.82,18.06,8.52H157.06l2,13.47-18.56-9.13-4.57,4-3.82,3.33L122,329.78,136.4,345l-2.69,6.95h-7.45l4.58,5.49L142.31,364l3.45,10.6h6.86l.16,6.22,19.61-3.32-2,11.2H142.14l8.21,9.5-24.09-9.08,20.27,23.08-22.85-11.55-1.85,9.81,6.59,1.74,2.23,15.1,8.44,9.7-26.4-16.76,2.83,7.47-24.67-15.3-23.31-19,3.61,17.74-27-24.81-9.14,5.21-8.29-4.35L39,415.91,55,424l-12.21,7.82,15.43,10.45-26.61-5v-9.55l-8.1-18.1-5.62,5.65-4,4.71L7,428.12l6.9,21,7.63,23.24.54,1.65H33.64l3.08,2.12,2.57,1.76,3.82-1.76L51,472.53l2.3,3.62,2.07,3.23.19,3,.23,3.73.06.95,2.3-.95,9-3.73,3.89-1.6,7.64-4.62,5.6-3.39,6.93.85,0,2.54.07,6.22v.11l.17-.11,9.7-6.22,5.18-3.32,1.42,3.32,1.07,2.51,10.82-2.51,15.6-3.62.13-.15,12.72-14.78,5,10.11-3.49,4.67-2.28,3.05,1.12.72,9.73,6.22,5.82,3.73,1.48.95-10.08,4.15,32.66,18.62-33.88-2,19.77,12-18.16-2.09-12.5-2.06-19,1.66,18.85,9.91,2.24,7.77-35.61-10.62,9.93,17.24L65.51,510.7l18.14,22L42.92,509,23.53,527.71l-9.61,16.37L3.79,561.32l4,61.41,7.56,6.07,20.87,16.75L20.53,656.13l4.63,27.79,52.24.22,10.94,11.73,37.92-14.31,6.59,6.07,1.29,1.19,9.29,8.57-15.74-.88-2.16-.12-7-.38L107.34,706.4,55.23,696.29,68,715.21l-34.63-6.09L62.88,735.8,97.4,722.11l4.51,2.56,1.46.82L130.78,741l1.26.71,1.63.93L173,724.47,152.77,748l13,10.86.1.08.95-.33h0l29.56-10.39.93-.32,7.66-2.69h15.83L213.59,741l-1-.6-3.85-2.28,4.7.7,1.24.18,13.68,2,1.38.2h0L248,743.89l14.75,10.23h0l3.64,2.52h0l9.4,6.54Z" transform="translate(0.4 0.1)"/></g></svg>