<svg id="glacier_type" xmlns="http://www.w3.org/2000/svg" viewBox="0 0 834.32 821.39"><defs><style>.cls-1{fill:#f1edd1;}</style></defs><path class="cls-1" d="M176.44,191a54.93,54.93,0,0,1-35.73,13.13,54.55,54.55,0,0,1-27.82-7.57,57.12,57.12,0,0,1-11.19-8.65,53.84,53.84,0,0,1-8.65-11.19,56.27,56.27,0,0,1-5.56-13.24,54.3,54.3,0,0,1-2-14.69,53.48,53.48,0,0,1,2-14.62A56.46,56.46,0,0,1,93.05,121a53.84,53.84,0,0,1,8.65-11.19,56.17,56.17,0,0,1,11.19-8.61,55.5,55.5,0,0,1,13.16-5.56,54,54,0,0,1,14.66-2,55,55,0,0,1,35.73,13.12l-11.19,18.65a35.8,35.8,0,0,0-11.19-7.72,33.4,33.4,0,0,0-26.52-.11,35,35,0,0,0-10.77,7.27,34.2,34.2,0,0,0-7.31,10.74,32.56,32.56,0,0,0-2.69,13.17,33,33,0,0,0,2.69,13.27,34.49,34.49,0,0,0,18.08,18.13,32.58,32.58,0,0,0,13.17,2.68,31.4,31.4,0,0,0,7.83-1,35.85,35.85,0,0,0,7.24-2.68V148.78h20.66Z" transform="translate(139.57 -93.36)"/><path class="cls-1" d="M267.81,201.81H192.92v-107h21.41V180.4h53.48Z" transform="translate(139.57 -93.36)"/><path class="cls-1" d="M363.28,201.81H341.87V180.4H299.06v21.41H277.73V137.66A41.86,41.86,0,0,1,281.08,121a43.73,43.73,0,0,1,9.14-13.61,42.55,42.55,0,0,1,13.58-9.17,43,43,0,0,1,33.34,0A42.89,42.89,0,0,1,359.92,121a41.69,41.69,0,0,1,3.36,16.67Zm-21.41-42.74V137.66a21,21,0,0,0-1.67-8.31,21.38,21.38,0,0,0-11.42-11.42,21.54,21.54,0,0,0-16.63,0,21.4,21.4,0,0,0-11.41,11.42,20.85,20.85,0,0,0-1.68,8.31v21.41Z" transform="translate(139.57 -93.36)"/><path class="cls-1" d="M467.26,190.84a54.95,54.95,0,0,1-35.88,13.28,54,54,0,0,1-14.66-2,55.16,55.16,0,0,1-13.2-5.59,55.81,55.81,0,0,1-11.22-8.69A55.6,55.6,0,0,1,378,163.43a55.64,55.64,0,0,1,0-29.35,55.33,55.33,0,0,1,14.29-24.46,55.49,55.49,0,0,1,24.42-14.29,54.37,54.37,0,0,1,14.66-2,55.31,55.31,0,0,1,19.17,3.39,53.36,53.36,0,0,1,16.71,9.88l-11.34,18.65a32,32,0,0,0-11.11-7.79,34,34,0,0,0-13.43-2.73,33,33,0,0,0-13.28,2.69,34.8,34.8,0,0,0-10.81,7.27A34,34,0,0,0,400,135.54a33.06,33.06,0,0,0-2.69,13.24A32.54,32.54,0,0,0,400,161.94,34.49,34.49,0,0,0,418.1,180a33,33,0,0,0,13.28,2.68A34,34,0,0,0,444.81,180a32,32,0,0,0,11.11-7.79Z" transform="translate(139.57 -93.36)"/><path class="cls-1" d="M501.05,201.81H479.64v-107h21.41Z" transform="translate(139.57 -93.36)"/><path class="cls-1" d="M594.21,201.81H520.89v-107h73.32v21.41H542.29v21.4h35.13v21.41H542.29V180.4h51.92Z" transform="translate(139.57 -93.36)"/><path class="cls-1" d="M630.6,201.81H609.2v-107H652a41.72,41.72,0,0,1,11.34,1.53,42.78,42.78,0,0,1,10.18,4.32,43.56,43.56,0,0,1,8.65,6.72,43,43,0,0,1,6.72,8.69,43.53,43.53,0,0,1,4.32,10.21,42.64,42.64,0,0,1,.15,22.08,44.18,44.18,0,0,1-4,9.92,41.92,41.92,0,0,1-6.31,8.66,42.76,42.76,0,0,1-8.35,6.86l11.86,28H663.87l-9.32-21.56-23.95.15Zm0-85.55v42.81H652a20.64,20.64,0,0,0,8.28-1.68A21.51,21.51,0,0,0,671.67,146a21.54,21.54,0,0,0,0-16.63,21.48,21.48,0,0,0-11.38-11.42,20.63,20.63,0,0,0-8.28-1.67Z" transform="translate(139.57 -93.36)"/><text x="139.57" y="-93.36"/></svg>