<svg xmlns="http://www.w3.org/2000/svg" viewBox="0 0 792 721.92"><defs><style>.cls-1{fill:#738988;}.cls-2{fill:#c5d9c8;}.cls-3{fill:#f1edd1;}.cls-4{fill:#c5d8c6;}</style></defs><g id="right_mountain"><polygon class="cls-1" points="792 0 792 57.77 791.47 58.21 790.63 58.9 771.57 74.56 650.75 173.86 658.98 160.11 666.62 147.35 678.38 128.09 695.51 120.92 729.03 84.96 739.44 57.77 747.03 41.8 767.12 34.72 771.57 28.51 790.63 1.91 791.47 0.74 792 0"/><polygon class="cls-1" points="792 17.41 792 464.57 791.47 464.43 791.46 464.43 790.63 464.21 771.57 459.25 727.32 447.73 685.29 436.79 549.53 401.44 456.6 377.24 499.42 331.3 546.71 280.56 555.99 270.61 603.86 219.25 626.02 195.47 638.3 182.3 649.47 170.31 658.98 160.11 695.51 120.92 729.03 84.96 771.57 39.33 790.63 18.88 791.47 17.98 792 17.41"/></g><g id="backmountains"><path id="backmountains-2" data-name="backmountains" class="cls-2" d="M389.17,412.89l-33.84,63.26-5.32,10L214.74,739l-1.07,2-2.28,4.28-7.78,14.53-18.53,34.65-7.91,14.79,0,0-1.93,3.61-13.72,25.66-1.38,2.58h0l-.35.66-1.8,3.37H.33V373.86Q7.1,365.45,14.23,358c31.5-32.71,69-49.85,118.07-37.08q1.8.46,3.63,1l22,23.36h15.36l12.28,11.8,21.74-11.8,15.1,17.39,13.39,2.23L257,388.33l20.09-14.47h14.52l30.14,14.47,14,14.51,34-12.28,7.31,8.42Z" transform="translate(-0.33 -205.54)"/></g><g id="white_glacier"><polygon class="cls-3" points="792 435.22 792 653.86 157.62 653.86 166.17 639.79 166.21 639.72 166.3 639.58 182.34 613.18 183.42 611.41 194.02 593.96 217.25 555.74 228.08 537.92 349.43 338.23 384.48 280.56 390.52 270.61 408.78 240.57 420.64 221.05 541.24 22.6 638.3 182.3 691.96 270.61 698.01 280.56 733.06 338.23 771.57 401.6 790.63 432.96 791.46 434.33 791.46 434.34 791.47 434.35 792 435.22"/><polygon class="cls-3" points="388.84 176.54 554.26 408.06 719.68 639.58 388.84 639.58 58.01 639.58 223.42 408.06 388.84 176.54"/><polygon class="cls-3" points="257.09 360.95 230.03 368.72 0 643.12 166.17 635.92 257.09 360.95"/><polygon class="cls-3" points="388.84 176.54 495.64 34.72 513.45 34.72 541.25 22.6 478.29 263.72 392.4 235.12 388.84 176.54 388.84 176.54"/><polygon class="cls-3" points="166.17 639.79 100.06 661.63 257.09 673.12 371.94 686.7 356.89 703.12 527.95 697.83 656.4 716.42 685.3 709.92 792 721.92 791.4 580.18 166.17 639.79 166.17 639.79"/><polygon class="cls-4" points="495.64 34.03 459.87 120.71 433.08 142.47 408.78 239.89 452.21 155.87 478.29 122.38 495.64 34.03"/><polygon class="cls-4" points="513.45 34.72 505.91 48.21 502.56 64.13 508.01 72 513.45 57.77 513.45 34.72"/><polygon class="cls-4" points="513.45 80.37 500.05 92.93 500.05 111.14 491.68 127.25 500.64 143.16 508.01 111.14 513.45 80.37"/><path class="cls-4" d="M541.57,228.14l8.2,25.61-4.1,16.19,8.29,7.6,5.86,17.58,10.88,10.05,11.73,29.3-7.26,27.07,17.36-6.7,11.66,15.63v54.32l20.1,16,9.89,19.77v8.7l14.66,9.49,3.35,32.37,17.86,21.21,15.57,33.49,15.45,12-8.69,17h21.35l17.72,53.58L711.36,674.1l20.09-10.05-8.93,29,23.44,29,30.14,32.37v27.39l15.69,19.49V639.88l.54-179.32h-14.4l-8.53,8.7s-14.51,1.67-14.51,5,6.7,20.1,6.7,20.1l-25.68-15.63-26.79-18.19,5.58-13.07-13.63-12.28-24.32-34.6L651.08,379.4l-16.9-46.88-28.87-23.45-6.14-13.95L592.53,294l-7.2-16.46L565.12,258.9l-23.55-30.76Z" transform="translate(-0.33 -205.54)"/></g></svg>