<svg id="Layer_16" data-name="Layer 16" xmlns="http://www.w3.org/2000/svg" viewBox="0 0 333.76 82.17"><defs><style>.cls-1{fill:none;stroke:#f1edd1;stroke-width:2.25px;}.cls-2{fill:#f1edd1;}</style></defs><rect class="cls-1" x="1.13" y="1.13" width="331.51" height="79.92" rx="12"/><path class="cls-2" d="M288.94,1930.31l-10.35,31.51h-6.31L262,1930.31h7.16l6.29,21,6.3-21Z" transform="translate(-219.88 -1904.13)"/><path class="cls-2" d="M298.39,1931.89a3.91,3.91,0,0,1-1.19,2.82,4.22,4.22,0,0,1-1.29.86,4,4,0,0,1-3.14,0,4,4,0,0,1-1.27-.86,4,4,0,0,1-.86-1.26,3.85,3.85,0,0,1-.32-1.56,3.91,3.91,0,0,1,.32-1.55,4.06,4.06,0,0,1,2.13-2.13,4,4,0,0,1,3.14,0,4.22,4.22,0,0,1,1.29.86,4,4,0,0,1,1.19,2.82Zm-1,29.93h-6v-23.53h6Z" transform="translate(-219.88 -1904.13)"/><path class="cls-2" d="M314.84,1961.82H301.13v-6h13.71a1.42,1.42,0,0,0,1.06-.44,1.44,1.44,0,0,0,.44-1.05.82.82,0,0,0-.44-.84,2.6,2.6,0,0,0-1.06-.2H308.6a7.16,7.16,0,0,1-2.92-.59,7.37,7.37,0,0,1-2.37-1.61,7.52,7.52,0,0,1-1.59-2.39,7.52,7.52,0,0,1,0-5.84,7.36,7.36,0,0,1,4-4,7.32,7.32,0,0,1,2.92-.58h12.15v6H308.6a1.4,1.4,0,0,0-1.05.44,1.44,1.44,0,0,0-.44,1,1.53,1.53,0,0,0,.44,1.09,1.41,1.41,0,0,0,1.05.45h6.24a8.15,8.15,0,0,1,2.9.51,7.61,7.61,0,0,1,2.38,1.44,6.86,6.86,0,0,1,1.6,2.22,6.69,6.69,0,0,1,.59,2.84,7.08,7.08,0,0,1-.59,2.91,7.74,7.74,0,0,1-1.6,2.37,7.53,7.53,0,0,1-2.38,1.61A7.4,7.4,0,0,1,314.84,1961.82Z" transform="translate(-219.88 -1904.13)"/><path class="cls-2" d="M332.58,1931.89a3.91,3.91,0,0,1-1.19,2.82,4.22,4.22,0,0,1-1.29.86,4,4,0,0,1-3.14,0,4,4,0,0,1-1.27-.86,4,4,0,0,1-.86-1.26,3.85,3.85,0,0,1-.32-1.56,3.91,3.91,0,0,1,.32-1.55,4.06,4.06,0,0,1,2.13-2.13,4,4,0,0,1,3.14,0,4.22,4.22,0,0,1,1.29.86,4,4,0,0,1,1.19,2.82Zm-1,29.93h-6v-23.53h6Z" transform="translate(-219.88 -1904.13)"/><path class="cls-2" d="M347.91,1961.82a10.16,10.16,0,0,1-4.08-.83,10.47,10.47,0,0,1-3.36-2.26,10.87,10.87,0,0,1-2.26-3.35,10.2,10.2,0,0,1-.82-4.09v-7h-2.92v-6h2.92v-9.41h6v9.41h9.1v6h-9.1v7a4.38,4.38,0,0,0,.36,1.77,4.43,4.43,0,0,0,1,1.44,4.7,4.7,0,0,0,1.45,1,4.46,4.46,0,0,0,1.78.36h4.55v6Z" transform="translate(-219.88 -1904.13)"/><path class="cls-2" d="M394.12,1958.63a16.17,16.17,0,0,1-18.72,1.64,16.92,16.92,0,0,1-3.3-2.55,16.29,16.29,0,0,1-4.76-11.52,15.74,15.74,0,0,1,.58-4.31,16.45,16.45,0,0,1,1.64-3.88,16,16,0,0,1,2.54-3.3,16.82,16.82,0,0,1,3.3-2.53,16.11,16.11,0,0,1,3.88-1.64,16.22,16.22,0,0,1,14.84,3.29l-3.29,5.49a10.72,10.72,0,0,0-3.3-2.28,9.82,9.82,0,0,0-3.93-.82,9.55,9.55,0,0,0-3.88.79,10.41,10.41,0,0,0-3.18,2.14,10.27,10.27,0,0,0-2.15,3.17,9.55,9.55,0,0,0-.79,3.88,9.69,9.69,0,0,0,.79,3.91,10.44,10.44,0,0,0,2.15,3.18,10.29,10.29,0,0,0,3.18,2.16,9.72,9.72,0,0,0,3.88.79,9.23,9.23,0,0,0,2.3-.29,10.55,10.55,0,0,0,2.14-.79v-9h6.08Z" transform="translate(-219.88 -1904.13)"/><path class="cls-2" d="M404.38,1961.82h-6v-32.9h6Z" transform="translate(-219.88 -1904.13)"/><path class="cls-2" d="M431.74,1961.82h-1.45l-2.33-3.23a21.17,21.17,0,0,1-1.81,1.44,14.36,14.36,0,0,1-2,1.16,12.52,12.52,0,0,1-2.17.78,9,9,0,0,1-2.25.29,12.9,12.9,0,0,1-4.67-.84,11,11,0,0,1-3.82-2.42,11.66,11.66,0,0,1-2.59-3.91,13.89,13.89,0,0,1-.94-5.25,13.3,13.3,0,0,1,.94-5,12.22,12.22,0,0,1,2.59-3.94,11.46,11.46,0,0,1,3.82-2.56,12,12,0,0,1,4.67-.92,9.1,9.1,0,0,1,2.26.29,11.37,11.37,0,0,1,2.18.79,13.62,13.62,0,0,1,2,1.19,15.9,15.9,0,0,1,1.79,1.47l2.33-2.79h1.45Zm-6-12a6.13,6.13,0,0,0-.48-2.38,6.71,6.71,0,0,0-1.28-2A6.34,6.34,0,0,0,422,1944a5.17,5.17,0,0,0-2.32-.54,6.41,6.41,0,0,0-2.32.42,5.15,5.15,0,0,0-1.89,1.23,5.84,5.84,0,0,0-1.26,2,8.36,8.36,0,0,0,0,5.47,5.84,5.84,0,0,0,1.26,2,5.42,5.42,0,0,0,1.89,1.23,6.41,6.41,0,0,0,2.32.42,5.17,5.17,0,0,0,2.32-.54,6.51,6.51,0,0,0,1.9-1.43,6.71,6.71,0,0,0,1.28-2A6.18,6.18,0,0,0,425.7,1949.84Z" transform="translate(-219.88 -1904.13)"/><path class="cls-2" d="M456.88,1943l-4.4,4.41a6,6,0,0,0-2.19-2.9,5.56,5.56,0,0,0-1.54-.77,5.88,5.88,0,0,0-1.72-.26,5.56,5.56,0,0,0-2.32.5,5.81,5.81,0,0,0-1.89,1.42,6.92,6.92,0,0,0-1.26,2.17,7.84,7.84,0,0,0-.46,2.76,5.78,5.78,0,0,0,.46,2.31,6.13,6.13,0,0,0,1.26,1.89,5.86,5.86,0,0,0,4.21,1.74,5.9,5.9,0,0,0,1.69-.24,6.43,6.43,0,0,0,1.53-.7,5.51,5.51,0,0,0,1.27-1.09,6.07,6.07,0,0,0,.92-1.44l4.39,4.41a12.17,12.17,0,0,1-1.92,2.13,12.4,12.4,0,0,1-2.35,1.61,11.84,11.84,0,0,1-2.66,1,12.45,12.45,0,0,1-2.87.34,11.67,11.67,0,0,1-4.67-.94,11.93,11.93,0,0,1-3.82-2.56A12.06,12.06,0,0,1,436,1955a11.56,11.56,0,0,1-.95-4.66,13.42,13.42,0,0,1,.95-5,13.1,13.1,0,0,1,2.58-4.1,12.15,12.15,0,0,1,3.82-2.75,10.94,10.94,0,0,1,4.67-1,11.55,11.55,0,0,1,5.59,1.47,11.44,11.44,0,0,1,2.38,1.74A11,11,0,0,1,456.88,1943Z" transform="translate(-219.88 -1904.13)"/><path class="cls-2" d="M466.87,1931.89a3.85,3.85,0,0,1-.31,1.56,4.17,4.17,0,0,1-.87,1.26,4.22,4.22,0,0,1-1.29.86,4,4,0,0,1-3.14,0,4.06,4.06,0,0,1-1.28-.86,4.11,4.11,0,0,1-.85-1.26,3.69,3.69,0,0,1-.32-1.56,3.74,3.74,0,0,1,.32-1.55,4.16,4.16,0,0,1,.85-1.27,4.06,4.06,0,0,1,1.28-.86,4,4,0,0,1,3.14,0,4.07,4.07,0,0,1,2.16,2.13A3.9,3.9,0,0,1,466.87,1931.89Zm-1,29.93h-6v-23.53h6Z" transform="translate(-219.88 -1904.13)"/><path class="cls-2" d="M479.77,1956.06a3.62,3.62,0,0,0,.7.14,5.63,5.63,0,0,0,.71,0,6,6,0,0,0,1.69-.24,6.62,6.62,0,0,0,1.53-.7,5.73,5.73,0,0,0,1.27-1.09,6,6,0,0,0,.91-1.44l4.4,4.41a12,12,0,0,1-6.94,4.74,12.37,12.37,0,0,1-2.86.34,12,12,0,0,1-8.5-3.5,11.94,11.94,0,0,1-2.58-3.92,12.87,12.87,0,0,1-.94-5,13.26,13.26,0,0,1,.94-5.09,11.44,11.44,0,0,1,6.41-6.46,12,12,0,0,1,4.67-.91,11.6,11.6,0,0,1,2.88.36,11.86,11.86,0,0,1,2.66,1,12.08,12.08,0,0,1,2.37,1.61,12.25,12.25,0,0,1,1.93,2.14Zm3.08-12.37a3.71,3.71,0,0,0-.83-.2,7.63,7.63,0,0,0-.84,0,6,6,0,0,0-2.32.45,5.5,5.5,0,0,0-1.89,1.28,5.87,5.87,0,0,0-1.26,2,7.1,7.1,0,0,0-.47,2.64c0,.22,0,.47,0,.75s.06.56.11.85.11.56.18.82a3.2,3.2,0,0,0,.29.7Z" transform="translate(-219.88 -1904.13)"/><path class="cls-2" d="M500,1961.82h-6v-23.53h1.45l2,2.79a10.51,10.51,0,0,1,7.12-2.75h5.29v6h-5.29a4.42,4.42,0,0,0-1.78.35,4.37,4.37,0,0,0-1.45,1,4.53,4.53,0,0,0-1.32,3.23Z" transform="translate(-219.88 -1904.13)"/></svg>