<svg xmlns="http://www.w3.org/2000/svg" viewBox="0 0 792.33 865.37"><defs><style>.cls-1{fill:#436e6f;}.cls-2{fill:#395e60;}.cls-3{fill:#c5d8c6;}</style></defs><g id="light_rock"><path class="cls-1" d="M792.3,919.56l-.5-.06-.84-.09-19.06-2.15-460.62-52h0l-18.35-2.07-12.47-1.4h0L268,860.42h-.17l-.22,0h-.09l-1.38-1-2.24-1.58-.12-.08-.26-.19-.18-.13-17.45-12.3-9.2-6.48-10.14-7.15-59.41,13.63-.62.14-66.15,15.18,47.28-15.32,10.14-3.28h0l2.25-.75h0L166.5,839l-5-.51c-10.8-1.1-37.65-3.86-66.48-6.88l-17.75-1.87-2.49-.26L69.86,829l-23.55-2.53L44,826.2l-4.25-.47L35,825.21c-4.94-.54-9.53-1.06-13.68-1.53L15.7,823c-7.68-.89-13.15-1.58-15.37-2v355.79h790.3v.05H0v440.42H792V1176.86h.33V919.56Z" transform="translate(0 -751.96)"/></g><g id="Layer_9" data-name="Layer 9"><path class="cls-2" d="M314.15,957.07q-1.39-4.74-9.49-9.49l-9.21,1.4-7.81-18.42L291,892.33l2.52-37.82L265.87,870q2.85,31.43,5.8,63.91l8.43,23.16Z" transform="translate(0 -751.96)"/><path class="cls-2" d="M369.4,758.65,362.7,756v1.33L356.29,754l2.37,3.27L351.4,754l1.12,1.59L336.75,752l2.09,2.65-17-.62,1.54,2.43-22.52-1.11,1.68,2-19,1.39c-19.15-3.33-34-3-42.42,2.89-13.43,1-28.86-.28-45.58-3-11.69-1.72-28,1.44-47.25,7.82-9.24.31-17.47,1.5-20.47,7.25l-10,10.61,4.27-.93-8.55,5.76h2.23L108.29,806c-.79,7.17-10.72,21.75-19.91,35.72l-7.81,5.21h3l-15.63,9.66,7.26-.91C61.4,865.2,48.33,872.57,36.85,875c1.68,1.49,4.93,2.22,10.79,1.67l3.9.18c-4.51,4.34-7.33,5.83-9.11,5.59,3.57,2.29,7,2.66,10,0L50.05,889l4.84-4.65L53.22,889l5.39-3.16-1.67,5c2.39.23,5.09-.33,8.74-3.35l-.56,3.4,6-4.89-.37,3.17,9.48-4.84-1.3,4.84c8.78-1.27,17.29-6.61,25.68-14l13-15.63,6.14-3-5.4,6.72,4.28-.19-3,3.16,2.6-.37a69.11,69.11,0,0,1-22.14,32.56l6.51,51.16h31.07c-1.35-3.1,1.3-9.3-13.77-9.86-9.65-21.45-8.24-38.34,25.31-55.63,12.39-6.6,22.78-17.84,29.86-36.74l6.42,7.25-.56-3.86,10.6,8.61.84-2.81L222.05,865c15.16,4.75,30,6.95,44.38,3.35l.83,3.35,50.24,36.56c3,9.22,1.85,15.94-1.68,21.2-5.34,16.82-2.89,25.41,5.58,27.63,6.66-5.32,10.8-22.79,14-44.93,1.66-10.18-2.24-17-8.93-22-9.6-7.69-19.68-15.41-19.82-22.61a85.23,85.23,0,0,0,26.23-17.86l6.14,3.63-.55-4.19,9.48.28.28-3.07,5.86,4.19-1.67-5.86,15.07,4.74-4.19-4.74,8.38,6.42v-5.91a13.14,13.14,0,0,0,10-7.77C358.25,819.73,359.14,791.28,369.4,758.65Z" transform="translate(0 -751.96)"/><polygon class="cls-1" points="354.55 12.53 337.02 7.81 340.77 12.53 333.28 15.53 337.02 19.39 325.31 33.77 341.23 26.36 321.24 44.69 348.6 27.32 359.13 16.39 354.55 12.53"/><polygon class="cls-1" points="276.85 69.12 262.71 88.47 269.78 85.86 262.71 107.44 269.78 96.7 267.54 108.93 280.19 89.02 272.75 92.65 276.85 69.12"/><polygon class="cls-1" points="295.45 22.61 259.73 47.81 271.45 45.49 257.13 69.12 284.96 52 280.19 79.16 290.01 69.12 316.1 50.13 291.73 57.21 312.57 31.81 290.01 41.58 314.15 17.02 290.01 14.79 295.45 22.61"/><polygon class="cls-1" points="290.01 69.12 298.8 107.44 302.73 99.07 304.1 108.93 317.78 99.81 308.29 101.02 311.64 90.7 304.38 92.93 316.1 50.13 290.01 69.12"/><polygon class="cls-2" points="383.17 33.77 370.29 4.78 346.89 12 362.43 47.49 383.17 33.77"/><path class="cls-2" d="M389.59,831.86,406,839.31c3.47-.38,6.31-1.12,7.54-2.8l3.76-2.79,2.93-.55,3.91-4.89-11-21.07,2.37-15.53-6.51-15.26c5.44-6.94,10.28-13.95,6.51-21.95L394.8,765.54l-1.12-2.61-.37,1.58-2.23-1.3-1.49,1.49-2.7-1.49v1.58l-1.21.66L381.59,754c-14.24-.53-19.38,12-21.95,28.24l-.7,10-2.79,4.37h2.09l-2.09,2.89,1.39.14,1.82-.84-3.21,3.91,3.07-1.89-1.54,2.24,2.16-1L355.45,810l2.79-1.39-2.23,3.9,1.67-1-2.23,3.91,1.95-1.54-1.95,4.88,3.07-2.09,1.39,4.88,1.82-2.51-.56,6.84,1.95-3.63v5.58l1.4-3.62,2.65,6.14,4.88,5-.14-4,2.66,5.86-.14-3.49,5,5.59.73-2.24,1.78,1.26.14-2.65,3.91.56Z" transform="translate(0 -751.96)"/><path class="cls-1" d="M380.18,755.77l4.2,13,3.72-2-.79-2.24,2.46,1L391,764l2.79,1.67v-1.64l1,1.48,20.65-11.07c3.36,6.72.15,14.15-6.51,21.95l6.51,15.26-2.37,15.53,11,21.07-3.91,4.89-2.93.55-3.76,2.79c-1.25,2-3.9,2.84-7.54,2.8l-16.37-7.45L386,836.24l-3.91-.56-.14,2.65-1.78-1.26-.73,2.24-5-5.59.14,3.49-2.66-5.86-.69,1.68-2.65-4-.73-7.91L365,829.39l-1.74-9-1.12,2.69v-6l-1.72,3.12-1.26-4.47.33-10.32,3-5.95-6.28,3.3,5.86-6.1-3.07-4.37,9.16-13.07C368.29,767.78,373.22,760.81,380.18,755.77Z" transform="translate(0 -751.96)"/><path class="cls-2" d="M422,824.26c-4-1-7.23.36-10,3l3,3.84.52,3.91,1.76-1.31,2.93-.55,3.91-4.89Z" transform="translate(0 -751.96)"/><polygon class="cls-2" points="381.68 18.14 378.15 14.79 380.52 19.54 378.15 18.42 379.92 21.63 377.94 25.16 383.17 20.23 381.68 18.14"/><path class="cls-2" d="M387,797.63c2,.51,4,4.91,7.4,4.42l1.95,0a23.3,23.3,0,0,0-2.26-4.64Z" transform="translate(0 -751.96)"/><path class="cls-3" d="M389.15,797.45c1.18,3.9,4.88,3.48,4.88.13l-1.39,0-1.14,0Z" transform="translate(0 -751.96)"/><path class="cls-2" d="M391.24,798.84c.7.43,1,0,1-1.3l-1.13,0Z" transform="translate(0 -751.96)"/><polygon class="cls-1" points="354.84 12.37 337.31 7.65 341.06 12.37 333.57 15.37 337.31 19.23 325.6 33.6 341.52 26.19 321.52 44.53 348.89 27.16 359.41 16.23 354.84 12.37"/><polygon class="cls-1" points="341.95 36.36 325.2 52.36 331.9 50.04 317.95 77.66 328.83 70.13 324.17 87.87 336.93 93.16 333.52 83.71 353.5 93.01 351.1 78.66 348.87 85.08 344.27 77.13 339.66 81.18 344.73 69.59 340.66 68.49 343.99 62.06 336.59 64.85 343.43 53.59 339.38 54.43 345.57 42.78 341.95 36.36"/></g></svg>